<svg width="181" height="181" viewBox="0 0 181 181" fill="none" xmlns="http://www.w3.org/2000/svg">
<circle cx="90.4076" cy="90.4076" r="84.0363" stroke="#FE0000" stroke-width="12.7425"/>
<path d="M64.4077 64.2376C64.4077 60.6165 64.4077 58.806 65.1627 57.8079C65.8204 56.9384 66.8258 56.4004 67.9141 56.3354C69.1633 56.2608 70.6698 57.2651 73.6827 59.2738L112.891 85.4128C115.381 87.0725 116.626 87.9023 117.059 88.9483C117.439 89.8627 117.439 90.8905 117.059 91.8049C116.626 92.8509 115.381 93.6807 112.891 95.3404L73.6827 121.479C70.6698 123.488 69.1633 124.492 67.9141 124.418C66.8258 124.353 65.8204 123.815 65.1627 122.945C64.4077 121.947 64.4077 120.137 64.4077 116.516V64.2376Z" stroke="white" stroke-width="6.26883" stroke-linecap="round" stroke-linejoin="round"/>
</svg>
